<?xml version="1.0" encoding="utf-8"?><svg xmlns="http://www.w3.org/2000/svg"><symbol viewBox="0 0 24 24" id="anchor"><path d="M12 20L12 7M9 10L15 10"/><circle cx="12" cy="5" r="2"/><path d="M20,14 C18.6666667,18 16,20 12,20 C8,20 5.33333333,18 4,14"/></symbol><symbol viewBox="0 0 24 24" id="basketball"><g stroke-linecap="butt">
        <path d="M3.00476 7.71673C6.03818 6.81589 9.99791 7.74841 13.2448 10.4315C16.5425 13.1566 18.2053 16.9442 17.8244 20.1241"/>
        <path d="M10.102 21.7996C9.33937 19.3589 10.0106 15.6137 12.0776 12.0335C14.1385 8.46402 17.0351 6.01413 19.5251 5.44463"/>
        <path d="M11.4419 2C11.2615 3.94419 10.5157 6.2298 9.22541 8.46468C7.29158 11.8142 4.64753 14.1615 2.40135 14.7854"/>
    </g><circle cx="12" cy="12" r="10"/></symbol><symbol viewBox="0 0 24 24" id="bike"><circle cx="14" cy="6" r="1"/><path d="M12 18V14L9 12L12 9L14 11L16 12"/><circle cx="6" cy="17" r="3"/><circle cx="18" cy="17" r="3"/></symbol><symbol viewBox="0 0 24 24" id="brightness"><path d="M15 6L12 3L9.00001 6H6.00001V9L3 12L6.00001 15V18H8.99999L12 21L15 18H18V15L21 12L18 9V6H15Z"/><path d="M16 12C16 9.79086 14.2091 8 12 8V16C14.2091 16 16 14.2091 16 12Z"/></symbol><symbol viewBox="0 0 24 24" id="camera"><path d="M8 7l.74-1.11A2 2 0 0 1 10.404 5h3.192a2 2 0 0 1 1.664.89L16 7h5v11H3V7h5z"/><circle cx="12" cy="12" r="3"/></symbol><symbol viewBox="0 0 24 24" id="cloud"><path d="M6.5,18 C4.01471863,18 2,15.9852814 2,13.5 C2,11.0147186 4.01471863,9 6.5,9 C6.9194849,9 7.3255638,9.05739789 7.71081142,9.16476838 C8.72277,7.28089089 10.711801,6 13,6 C15.9817502,6 18.4554927,8.17503894 18.9211951,11.0250841 C20.6555928,11.2331085 22,12.7095527 22,14.5 C22,16.4329966 20.4329966,18 18.5,18 L6.5,18 Z"/></symbol><symbol viewBox="0 0 24 24" id="coffee"><path d="M5 12H17V17C17 19.7614 14.7614 22 12 22H10C7.23858 22 5 19.7614 5 17V12Z"/><path d="M17 13H19C20.1046 13 21 13.8954 21 15V15C21 16.1046 20.1046 17 19 17H17"/><path d="M9 9C9 9 8 8.5 8 7C8 5.5 9 5 9 5"/><path d="M12 3C12 3 13 3.5 13 5C13 6.5 12 7 12 7"/></symbol><symbol viewBox="0 0 24 24" id="cursor"><polygon points="7 20 7 4 19 16 12 16 7 21"/></symbol><symbol viewBox="0 0 24 24" id="eye"><path d="M22 12C22 12 19 18 12 18C5 18 2 12 2 12C2 12 5 6 12 6C19 6 22 12 22 12Z"/><circle cx="12" cy="12" r="3"/></symbol><symbol viewBox="0 0 24 24" id="eye-closed"><path d="M20 9C20 9 19.6797 9.66735 19 10.5144M12 14C10.392 14 9.04786 13.5878 7.94861 13M12 14C13.608 14 14.9521 13.5878 16.0514 13M12 14V17.5M4 9C4 9 4.35367 9.73682 5.10628 10.6448M7.94861 13L5 16M7.94861 13C6.6892 12.3266 5.75124 11.4228 5.10628 10.6448M16.0514 13L18.5 16M16.0514 13C17.3818 12.2887 18.3535 11.3202 19 10.5144M5.10628 10.6448L2 12M19 10.5144L22 12"/></symbol><symbol viewBox="0 0 24 24" id="favourite"><path d="M12,21 L10.55,19.7051771 C5.4,15.1242507 2,12.1029973 2,8.39509537 C2,5.37384196 4.42,3 7.5,3 C9.24,3 10.91,3.79455041 12,5.05013624 C13.09,3.79455041 14.76,3 16.5,3 C19.58,3 22,5.37384196 22,8.39509537 C22,12.1029973 18.6,15.1242507 13.45,19.7149864 L12,21 Z"/></symbol><symbol viewBox="0 0 24 24" id="image"><rect width="18" height="18" x="3" y="3"/><path stroke-linecap="round" d="M3 14l4-4 11 11"/><circle cx="13.5" cy="7.5" r="2.5"/><path stroke-linecap="round" d="M13.5 16.5L21 9"/></symbol><symbol viewBox="0 0 24 24" id="plane"><path d="M18.3937 4.3638L14 7L6 5L5 6L10.5 10.5L8 14H5L4 15L6.5 16.5L7.5 17.5L9 20L10 19V16L13.5 13.5L18 19L19 18L17 10L19.6362 5.60634C19.85 5.24999 19.7939 4.79385 19.5 4.5C19.2061 4.20615 18.75 4.14999 18.3937 4.3638Z"/></symbol><symbol viewBox="0 0 24 24" id="radio"><path d="M5.44972845 6C2.18342385 9.2663046 2.18342385 14.7336954 5.44972845 18M8.59918369 8C6.46693877 10.1322449 6.46693877 13.8677551 8.59918369 16M18.5502716 18C21.8165761 14.7336954 21.8165761 9.2663046 18.5502716 6M15.4008163 16C17.5330612 13.8677551 17.5330612 10.1322449 15.4008163 8"/><circle cx="12" cy="12" r="1"/></symbol><symbol viewBox="0 0 24 24" id="restaurant"><path d="M8 4L8 20M18 12C16 11.3333333 15 10 15 8 15 6 16 4.66666667 18 4L18 20 18 12zM5 4L5 7C5 8.65685425 6.34314575 10 8 10L8 10C9.65685425 10 11 8.65685425 11 7L11 4"/></symbol><symbol viewBox="0 0 24 24" id="rain"><path d="M16 18l1 3m-4-3l1 3m-4-3l1 3m8.051-3.043C20.5 17.97 22 16.245 22 14.5a3.5 3.5 0 0 0-3.079-3.475 6.002 6.002 0 0 0-11.21-1.86A4.504 4.504 0 0 0 2 13.5c0 2.311 1.5 4.47 3.986 4.47H7"/></symbol><symbol viewBox="0 0 24 24" id="sounds"><path d="M12 7L12 17"/><path d="M15 10L15 14"/><path d="M18 8L18 16"/><path d="M21 13L21 11"/><path d="M9 4L9 20"/><path d="M6 9L6 15"/><path d="M3 13L3 11"/></symbol><symbol viewBox="0 0 24 24" id="star"><polygon points="12 17.844 6.183 20.902 7.294 14.425 2.588 9.838 9.092 8.893 12 3 14.908 8.893 21.412 9.838 16.706 14.425 17.817 20.902"/></symbol><symbol viewBox="0 0 24 24" id="sun"><circle cx="12" cy="12" r="4"/><path d="M12 5L12 3M12 21L12 19M5 12L2 12 5 12zM22 12L19 12 22 12zM16.9497475 7.05025253L19.0710678 4.92893219 16.9497475 7.05025253zM4.92893219 19.0710678L7.05025253 16.9497475 4.92893219 19.0710678zM16.9497475 16.9497475L19.0710678 19.0710678 16.9497475 16.9497475zM4.92893219 4.92893219L7.05025253 7.05025253 4.92893219 4.92893219z"/></symbol><symbol viewBox="0 0 24 24" id="sunset"><path d="M9.3541756,17 C8.52375489,16.2670555 8,15.1946925 8,14 C8,11.790861 9.790861,10 12,10 C14.209139,10 16,11.790861 16,14 C16,15.1946925 15.4762451,16.2670555 14.6458244,17 L9.3541756,17 Z"/><path d="M12 7L12 5M22 17L2 17 22 17zM5 14L2 14 5 14zM22 14L19 14 22 14zM16.7071068 9.82842712L18.8284271 7.70710678 16.7071068 9.82842712zM4.70710678 7.70710678L6.82842712 9.82842712 4.70710678 7.70710678z"/></symbol><symbol viewBox="0 0 24 24" id="time"><circle cx="12" cy="12" r="10"/><polyline points="12 5 12 12 16 16"/></symbol><symbol viewBox="0 0 24 24" id="timer"><path d="M6.58748441 4.80875867C4.40860039 6.45129836 3 9.06115105 3 12 3 16.9705627 7.02943725 21 12 21 16.9705627 21 21 16.9705627 21 12 21 7.02943725 16.9705627 3 12 3L12 7M12 13L8 9"/></symbol><symbol viewBox="0 0 24 24" id="train"><path d="M6 11V6M6 11V16C6 16.5523 6.44772 17 7 17H8M6 11H12M6 6C6.66667 5.33333 8 4 12 4C16 4 17.3333 5.33333 18 6M6 6H12M18 6V11M18 6H12M18 11V16C18 16.5523 17.5523 17 17 17H16M18 11H12M8 17H16M8 17L7 20H17L16 17M12 11V6"/><circle cx="9" cy="14" r="1"/><circle cx="15" cy="14" r="1"/></symbol><symbol viewBox="0 0 24 24" id="umbrella"><path d="M22,11 C22,6.02943725 17.5228475,2 12,2 C6.4771525,2 2,6.02943725 2,11 C7,11 15,11 22,11 Z"/><path d="M17,19 C17,19.3333333 17,19.5 17,19.5 C17,20.8807119 15.8807119,22 14.5,22 C13.1192881,22 12,20.8807119 12,19.5 C12,18.7592593 12,16.2592593 12,12"/><path stroke-linecap="butt" d="M12,12 L12,11"/></symbol><symbol viewBox="0 0 24 24" id="user"><path stroke-linecap="round" d="M5.5,19.5 C7.83333333,18.5 9.33333333,17.6666667 10,17 C11,16 8,16 8,11 C8,7.66666667 9.33333333,6 12,6 C14.6666667,6 16,7.66666667 16,11 C16,16 13,16 14,17 C14.6666667,17.6666667 16.1666667,18.5 18.5,19.5"/><circle cx="12" cy="12" r="10"/></symbol><symbol viewBox="0 0 24 24" id="walking"><circle cx="13" cy="5" r="1"/><path d="M15 20L14 17L11 14M11 14L12 9M11 14L8 20M12 9L15 12L17 13M12 9L9 11L8 14"/></symbol></svg>